<?xml version="1.0" encoding="UTF-8" standalone="no"?>
<!-- Created with Inkscape (http://www.inkscape.org/) -->

<svg
   xmlns:dc="http://purl.org/dc/elements/1.1/"
   xmlns:cc="http://creativecommons.org/ns#"
   xmlns:rdf="http://www.w3.org/1999/02/22-rdf-syntax-ns#"
   xmlns:svg="http://www.w3.org/2000/svg"
   xmlns="http://www.w3.org/2000/svg"
   xmlns:sodipodi="http://sodipodi.sourceforge.net/DTD/sodipodi-0.dtd"
   xmlns:inkscape="http://www.inkscape.org/namespaces/inkscape"
   width="200mm"
   height="200mm"
   viewBox="0 0 708.66142 708.66141"
   id="svg2"
   version="1.1"
   inkscape:version="0.91 r13725"
   sodipodi:docname="icon.svg"
   inkscape:export-filename="/Users/gg/Dev/github/dont-dupe-tabs/icon-closed.png"
   inkscape:export-xdpi="8.1300001"
   inkscape:export-ydpi="8.1300001">
  <defs
     id="defs4" />
  <sodipodi:namedview
     id="base"
     pagecolor="#ffffff"
     bordercolor="#666666"
     borderopacity="1.0"
     inkscape:pageopacity="0.0"
     inkscape:pageshadow="2"
     inkscape:zoom="0.49497475"
     inkscape:cx="355.34314"
     inkscape:cy="630.237"
     inkscape:document-units="px"
     inkscape:current-layer="layer1"
     showgrid="false"
     inkscape:window-width="1920"
     inkscape:window-height="1110"
     inkscape:window-x="30"
     inkscape:window-y="0"
     inkscape:window-maximized="0" />
  <metadata
     id="metadata7">
    <rdf:RDF>
      <cc:Work
         rdf:about="">
        <dc:format>image/svg+xml</dc:format>
        <dc:type
           rdf:resource="http://purl.org/dc/dcmitype/StillImage" />
        <dc:title></dc:title>
      </cc:Work>
    </rdf:RDF>
  </metadata>
  <g
     inkscape:label="Layer 1"
     inkscape:groupmode="layer"
     id="layer1"
     transform="translate(0,-343.70079)">
    <path
       inkscape:connector-curvature="0"
       style="fill:#4d4d4d"
       d="m 354.63495,479.69289 c -3.227,-0.0105 -6.9451,0.015 -11.2318,0.015 l -26.044,0 -3.1134,3.9652 c -2.8099,3.57228 -3.1193,5.99642 -3.1193,24.6371 l 0,20.67778 -16.9182,0.2379 c -14.0461,0.19893 -17.3788,0.69735 -19.638,2.93719 -1.4966,1.48381 -7.7547,16.51218 -13.90755,33.39578 l -11.18774,30.69652 -0.003,208.7574 c -0.002,144.83896 0.48917,209.67334 1.60076,211.75034 0.88119,1.6465 3.08055,3.5897 4.88748,4.3177 3.5372,1.4252 169.64655,2.0279 174.83585,0.6344 1.7175,-0.4612 4.2552,-2.7557 5.6394,-5.0989 2.3203,-3.9279 2.5172,-20.43788 2.5172,-211.50074 l 0,-207.23889 -11.455,-31.63934 c -6.3004,-17.40142 -12.5601,-32.78384 -13.9105,-34.18295 -1.9665,-2.03749 -5.8979,-2.63617 -19.7496,-3.00767 l -17.2942,-0.46407 -0.3848,-21.80566 c -0.4451,-25.16508 1.0658,-27.01424 -21.5236,-27.08378 z m -22.4548,21.06842 12.0866,0 12.0894,0 -0.4347,13.91051 -0.4318,13.9105 -10.6384,0.39064 c -5.8515,0.21398 -11.0962,-0.0671 -11.6548,-0.62561 -0.5586,-0.55861 -1.0163,-6.995 -1.0163,-14.30116 l 0,-13.28488 z m -43.2882,48.12283 54.6757,0 c 52.0161,0 54.7487,0.1388 56.1913,2.83437 2.2498,4.20378 12.1241,32.20671 12.1247,34.38562 3e-4,1.4763 -14.6873,1.8798 -68.4247,1.8798 -37.6335,0 -68.4246,-0.28208 -68.4246,-0.62856 0,-0.34648 3.1184,-9.14394 6.9288,-19.5499 l 6.9288,-18.92133 z m -18.3691,58.62325 73.3121,0.39065 73.3121,0.3877 0.3818,196.62685 0.3819,196.62691 -73.694,0 -73.6939,0 0,-197.01461 0,-197.0175 z"
       id="path4252" />
    <rect
       style="fill:#4d4d4d;fill-opacity:1;stroke:none;stroke-width:0.125;stroke-linecap:butt;stroke-linejoin:miter;stroke-miterlimit:1;stroke-dasharray:none;stroke-opacity:1"
       id="rect4336"
       width="34.939434"
       height="312.93585"
       x="292.13324"
       y="655.59656" />
    <path
       id="path4340"
       d="m -136.03194,427.73495 c -3.21439,-0.28579 -6.92103,-0.5775 -11.19212,-0.94321 l -25.94907,-2.22182 -3.44034,3.68513 c -3.10445,3.31954 -3.61947,5.70845 -5.20972,24.28117 l -1.76404,20.60239 -16.8768,-1.20626 c -14.01184,-1.00007 -17.37495,-0.78779 -19.817,1.25115 -1.61776,1.35073 -9.13508,15.79043 -16.70587,32.08758 l -13.76569,29.63017 -17.81222,207.9961 c -12.3578,144.31082 -17.39998,208.95067 -16.46963,211.11507 0.73752,1.7157 2.76309,3.8393 4.50131,4.7188 3.40274,1.7218 168.85514,16.4933 174.14439,15.5476 1.75051,-0.3134 4.47479,-2.3827 6.05383,-4.5993 2.646887,-3.7156 4.251557,-20.1487 20.551237,-210.51502 l 17.67968,-206.48338 -8.71409,-32.50124 c -4.79289,-17.87548 -9.71752,-33.73584 -10.94363,-35.24505 -1.78551,-2.19782 -5.65151,-3.12971 -19.421027,-4.68156 l -17.1915,-1.93776 1.47688,-21.75898 c 1.70337,-25.1113 3.36646,-26.82483 -19.13468,-28.82124 z m -24.17027,19.076 12.04245,1.0311 12.04538,1.03136 -1.61983,13.8227 -1.61691,13.82297 -10.63302,-0.51838 c -5.84842,-0.28598 -11.04997,-1.01328 -11.55889,-1.61759 -0.50891,-0.60422 -0.41581,-7.0562 0.20748,-14.33573 l 1.13334,-13.23643 z m -47.2358,44.25444 54.47636,4.66441 c 51.82642,4.43753 54.537237,4.80894 55.744617,7.61775 1.88295,4.3804 9.3324,33.12362 9.14704,35.29464 -0.12558,1.47095 -14.794077,0.61996 -68.335557,-3.9644 -37.49635,-3.21055 -68.15113,-6.1184 -68.12156,-6.46362 0.0295,-0.34522 3.88709,-8.84457 8.57136,-18.88752 l 8.51774,-18.26126 z m -23.30336,56.84244 73.01152,6.64354 73.011777,6.64059 -16.393927,195.94261 -16.3939,195.94265 -73.4253,-6.2869 -73.42529,-6.2869 16.80744,-196.29633 16.80768,-196.29926 z"
       style="fill:#4d4d4d"
       inkscape:connector-curvature="0" />
    <rect
       y="613.68439"
       x="-161.54742"
       height="312.93585"
       width="34.939438"
       id="rect4348"
       style="fill:#4d4d4d;fill-opacity:1;stroke:none;stroke-width:0.125;stroke-linecap:butt;stroke-linejoin:miter;stroke-miterlimit:1;stroke-dasharray:none;stroke-opacity:1"
       transform="matrix(0.9963544,0.08531061,-0.08531061,0.9963544,0,0)" />
    <path
       style="fill:#4d4d4d"
       d="m 320.79135,370.60996 c -5.5529,3.38555 -9.047,11.49456 -17.9905,34.43322 -6.4741,16.60504 -18.9353,48.52113 -27.6915,70.92351 -8.7562,22.40236 -16.39094,42.74507 -16.96508,45.20744 -1.83009,7.84882 1.72076,10.38896 29.69708,21.24263 14.4415,5.60271 38.8303,15.12816 54.1999,21.16983 69.5552,27.34154 85.9227,33.33712 87.4818,32.04046 0.9128,-0.75926 1.6894,-0.74159 1.7242,0.0371 0.035,0.77875 0.9586,1.21774 2.053,0.97884 1.0946,-0.2389 2.4956,-0.71314 3.1128,-1.05474 1.6589,-0.918 9.0884,-18.07119 10.8305,-25.00508 15.8935,-35.50362 24.3892,-61.88841 35.6714,-90.70218 0,0 13.14,-24.63431 13.0761,-37.78066 -1.1427,-9.40847 -10.007,-17.67052 -33.2466,-30.99007 -40.1795,-23.02849 -110.6675,-45.99607 -132.3993,-43.13959 -4.0801,0.53632 -7.0297,1.10037 -9.5538,2.63926 z m 11.4758,17.66079 c 1.9154,-1.30509 29.5027,4.42375 46.4426,9.64415 21.2524,6.54945 53.4033,19.84783 70.0861,28.98717 13.0835,7.16754 26.3747,16.24745 25.953,17.73015 -0.3116,1.09605 -34.1128,87.53355 -43.1619,110.37485 -3.9034,9.85261 -7.3339,18.03794 -7.6238,18.18891 -0.2899,0.15095 -17.3544,-6.39397 -37.921,-14.5443 -20.5665,-8.15029 -52.5603,-20.6795 -71.096,-27.84045 -23.5636,-9.10334 -33.5014,-13.64576 -33.0379,-15.10287 2.4626,-7.74138 49.5425,-126.88128 50.3589,-127.43761 z"
       id="path4244"
       inkscape:connector-curvature="0"
       sodipodi:nodetypes="sssssssccccccsssssssssssss"
       inkscape:export-xdpi="31.00577"
       inkscape:export-ydpi="31.00577" />
    <path
       style="fill:#ff2a2a;fill-opacity:1;stroke:none;stroke-width:0.125;stroke-linecap:butt;stroke-linejoin:miter;stroke-miterlimit:1;stroke-dasharray:none;stroke-opacity:1"
       d="m 414.48265,569.46382 c -5.1036,-1.94576 -23.9792,-9.31427 -41.946,-16.37452 -17.9666,-7.06024 -39.6388,-15.54382 -48.1604,-18.85244 -30.5749,-11.87116 -42.7393,-17.23652 -42.2039,-18.615 0.1152,-0.29664 1.5594,-4.11451 3.2093,-8.48416 7.0921,-18.7834 43.7939,-111.52363 46.2255,-116.80542 l 0.9543,-2.07293 3.3221,0.24151 c 8.9305,0.64926 36.0194,7.26197 51.7369,12.62955 11.2678,3.84801 35.423,13.59563 47.0248,18.97636 14.0948,6.53698 35.0021,19.01077 38.5869,23.02171 l 1.3074,1.46304 -8.8262,22.66234 c -22.3666,57.42876 -40.0129,102.06249 -41.3742,104.65042 -0.5271,1.00212 -1.3814,0.79059 -9.8565,-2.44046 z"
       id="path4320"
       inkscape:connector-curvature="0" />
    <path
       style="fill:#4d4d4d"
       d="m -693.41097,279.19802 c -1.96491,-10e-4 -4.22204,5e-4 -6.8238,5e-4 -20.23558,0 -19.29785,-0.0627 -22.45636,1.50348 -2.66195,1.32 -5.15807,4.21965 -6.18019,7.17878 l -0.60895,1.76256 0,71.15532 0,71.15532 0.60895,1.76309 c 1.55103,4.49041 5.85416,7.98823 10.61924,8.63176 0.43083,0.0582 32.45075,0.0934 71.15532,0.078 l 70.37198,-0.0281 1.45911,-0.55846 c 0.80241,-0.30736 1.85993,-0.76276 2.35008,-1.01185 2.46095,-1.25067 4.96423,-4.14972 6.02209,-6.97426 l 0.61352,-1.63914 0.0687,-62.8214 0.0684,-62.8219 -16.8887,-0.1734 c -9.28865,-0.0955 -32.83945,-0.17393 -52.33526,-0.17393 l -35.4471,0 -0.10762,-8.16002 c -0.1176,-8.8956 -0.21993,-9.60603 -1.77226,-12.33794 -1.1725,-2.06347 -2.50807,-3.44595 -4.38753,-4.54256 -3.13701,-1.83038 -2.57534,-1.9778 -16.32972,-1.98594 z m -21.57711,39.03802 67.10795,0 67.10798,0 0,54.83528 0,54.83531 -67.10798,0 -67.10795,0 0,-54.83531 0,-54.83528 z"
       id="path4587"
       inkscape:connector-curvature="0"
       inkscape:export-xdpi="36.310509"
       inkscape:export-ydpi="36.310509" />
    <path
       inkscape:connector-curvature="0"
       id="path4590"
       d="m -504.7047,304.35885 c -1.96492,-0.001 -4.22206,5.1e-4 -6.82382,5.1e-4 -20.23557,0 -19.29784,-0.0627 -22.45637,1.50348 -2.66194,1.31997 -5.15807,4.21963 -6.18018,7.17876 l -0.60894,1.76257 0,71.15533 0,71.15532 0.60894,1.76308 c 1.55102,4.49041 5.85415,7.98824 10.61923,8.63177 0.43085,0.0582 32.45075,0.0934 71.15533,0.078 l 70.37196,-0.0281 1.45911,-0.55846 c 0.80242,-0.30735 1.85996,-0.76276 2.35009,-1.01184 2.46097,-1.25066 4.96422,-4.14974 6.0221,-6.97426 l 0.61352,-1.63914 0.0687,-62.8214 0.0684,-62.82193 -16.88867,-0.17338 c -9.28865,-0.0955 -32.83945,-0.17391 -52.33526,-0.17391 l -35.44711,0 -0.10761,-8.16002 c -0.11761,-8.89561 -0.21994,-9.60605 -1.77225,-12.33796 -1.17252,-2.06346 -2.50808,-3.44593 -4.38754,-4.54257 -3.13703,-1.83036 -2.57533,-1.97778 -16.32971,-1.98593 z m -21.57714,39.03801 67.10797,0 67.10795,0 0,54.8353 0,54.83529 -67.10795,0 -67.10797,0 0,-54.83529 0,-54.8353 z"
       style="fill:#4d4d4d"
       inkscape:export-xdpi="36.310509"
       inkscape:export-ydpi="36.310509" />
    <path
       style="fill:#4d4d4d"
       d="m -602.20295,461.61406 c -1.96491,-10e-4 -4.22204,5e-4 -6.8238,5e-4 -20.23558,0 -19.29785,-0.0627 -22.45636,1.50348 -2.66194,1.31998 -5.15808,4.21964 -6.18019,7.17877 l -0.60895,1.76255 0,71.15535 0,71.15532 0.60895,1.76309 c 1.55102,4.4904 5.85416,7.9882 10.61923,8.63176 0.43085,0.0582 32.45075,0.0934 71.15533,0.078 l 70.37197,-0.0281 1.45912,-0.55845 c 0.80239,-0.30735 1.85994,-0.76276 2.35007,-1.01184 2.46096,-1.25066 4.96424,-4.14974 6.02209,-6.97426 l 0.61353,-1.63914 0.0687,-62.8214 0.0684,-62.82193 -16.88869,-0.17338 c -9.28865,-0.0955 -32.83945,-0.17393 -52.33527,-0.17393 l -35.44709,0 -0.10761,-8.16001 c -0.11761,-8.8956 -0.21992,-9.60604 -1.77226,-12.33795 -1.17252,-2.06346 -2.50807,-3.44593 -4.38754,-4.54257 -3.13701,-1.83038 -2.57532,-1.97778 -16.32971,-1.98593 z m -21.57712,39.03801 67.10796,0 67.10798,0 0,54.8353 0,54.83529 -67.10798,0 -67.10796,0 0,-54.83529 0,-54.8353 z"
       id="path4592"
       inkscape:connector-curvature="0"
       inkscape:export-xdpi="36.310509"
       inkscape:export-ydpi="36.310509" />
    <path
       style="fill:#44aa00"
       d="m -366.14574,585.53728 c 9.76101,-4.13858 17.80516,-15.10459 18.69386,-25.48404 1.3618,-15.90461 -12.53272,-32.40131 -28.43733,-33.76311 -10.37942,-0.88873 -22.55334,5.17411 -28.29104,14.0895 -6.21024,9.64956 -6.99821,18.85229 -2.51879,29.41708 4.13858,9.76104 15.10463,17.80517 25.48403,18.69389 3.70826,0.31751 10.48941,-1.01147 15.06927,-2.95332 z"
       id="path4461"
       inkscape:connector-curvature="0"
       inkscape:export-xdpi="36.310509"
       inkscape:export-ydpi="36.310509" />
    <path
       style="fill:#44aa00"
       d="m -393.00068,580.13189 c -5.75026,-3.22766 -8.21505,-6.15407 -10.41817,-12.3693 -1.58723,-4.47774 -2.70967,-10.19948 -2.4943,-12.71495 0.21541,-2.51546 2.29416,-7.9631 4.61952,-12.10585 3.22764,-5.75027 6.15406,-8.21505 12.36931,-10.41817 4.47774,-1.58724 10.19949,-2.70967 12.71494,-2.49428 2.51547,0.21536 7.9631,2.29415 12.10585,4.61949 5.75025,3.22766 8.21506,6.15405 10.41818,12.3693 1.58723,4.47776 2.70967,10.19949 2.49428,12.71497 -0.21539,2.51544 -2.29416,7.96309 -4.61953,12.10584 -3.22761,5.75025 -6.15402,8.21506 -12.36927,10.41818 -10.24174,3.63037 -15.34531,3.19338 -24.82081,-2.12523 z"
       id="path4459"
       inkscape:connector-curvature="0"
       inkscape:export-xdpi="36.310509"
       inkscape:export-ydpi="36.310509" />
    <path
       style="fill:#44aa00"
       d="m -273.32082,534.51442 c 9.76099,-4.13859 17.80517,-15.1046 18.69384,-25.48405 1.36183,-15.90461 -12.53271,-32.40132 -28.43732,-33.76312 -15.90461,-1.36181 -32.40132,12.53274 -33.76311,28.43735 -0.31751,3.70823 1.01148,10.4894 2.95329,15.06925 4.13861,9.76102 15.10462,17.80515 25.48406,18.69387 3.70822,0.31752 10.48937,-1.01146 15.06924,-2.9533 z"
       id="path4449"
       inkscape:connector-curvature="0"
       inkscape:export-xdpi="36.310509"
       inkscape:export-ydpi="36.310509" />
    <path
       style="fill:#44aa00"
       d="m -300.17576,529.10902 c -5.75026,-3.22765 -8.21506,-6.15406 -10.41819,-12.36929 -1.5872,-4.47776 -2.70966,-10.19949 -2.49427,-12.71497 0.21539,-2.51545 2.29418,-7.96312 4.61949,-12.10585 3.22767,-5.75025 6.15407,-8.21505 12.36933,-10.41816 4.47775,-1.58725 10.19949,-2.70966 12.71495,-2.49428 2.51545,0.21536 7.9631,2.29415 12.10584,4.61949 5.75026,3.22765 8.21506,6.15404 10.41817,12.36929 1.58726,4.47778 2.70968,10.1995 2.49429,12.71496 -0.21539,2.51547 -2.29415,7.96312 -4.6195,12.10584 -3.22766,5.75028 -6.15406,8.21507 -12.36932,10.4182 -10.2417,3.63038 -15.3453,3.19339 -24.82079,-2.12523 z"
       id="path4447"
       inkscape:connector-curvature="0"
       inkscape:export-xdpi="36.310509"
       inkscape:export-ydpi="36.310509" />
    <path
       style="fill:#44aa00"
       d="m -356.12074,468.45407 c 9.761,-4.1386 17.80514,-15.10464 18.69386,-25.48405 1.3618,-15.90463 -12.53273,-32.40132 -28.43735,-33.76313 -15.90462,-1.3618 -32.40131,12.53275 -33.76311,28.43735 -0.88872,10.37944 5.17412,22.55333 14.08951,28.29104 9.64952,6.21024 18.85227,6.99819 29.41709,2.51879 z"
       id="path4445"
       inkscape:connector-curvature="0"
       inkscape:export-xdpi="36.310509"
       inkscape:export-ydpi="36.310509" />
    <path
       style="fill:#44aa00"
       d="m -382.97569,463.04865 c -5.75027,-3.22763 -8.21506,-6.15404 -10.41818,-12.36929 -3.63039,-10.24172 -3.19338,-15.34533 2.12522,-24.8208 3.22766,-5.75024 6.15406,-8.21506 12.36931,-10.41817 10.24172,-3.63039 15.34532,-3.19341 24.82079,2.12522 5.75027,3.22763 8.21508,6.15403 10.41819,12.36928 1.58723,4.47777 2.70967,10.19951 2.49426,12.71498 -0.21536,2.51547 -2.29416,7.9631 -4.6195,12.10586 -3.22762,5.75024 -6.15403,8.21503 -12.36928,10.41815 -10.24174,3.63038 -15.34533,3.1934 -24.82081,-2.12523 z"
       id="path4443"
       inkscape:connector-curvature="0"
       inkscape:export-xdpi="36.310509"
       inkscape:export-ydpi="36.310509" />
    <path
       style="fill:#44aa00"
       d="m -180.49592,483.49154 c 9.76102,-4.13859 17.80519,-15.10461 18.69389,-25.48406 1.36182,-15.90461 -12.53272,-32.40131 -28.43736,-33.7631 -15.90461,-1.3618 -32.4013,12.53273 -33.76311,28.43734 -0.88873,10.37944 5.17414,22.55335 14.08952,28.29104 9.64953,6.21023 18.85226,6.99819 29.41706,2.51878 z"
       id="path4441"
       inkscape:connector-curvature="0"
       inkscape:export-xdpi="36.310509"
       inkscape:export-ydpi="36.310509" />
    <path
       style="fill:#44aa00"
       d="m -207.35085,478.08614 c -5.75025,-3.22766 -8.21504,-6.15404 -10.41817,-12.36931 -1.58724,-4.47774 -2.70966,-10.19948 -2.49428,-12.71493 0.21537,-2.51547 2.29416,-7.96312 4.61953,-12.10587 3.22762,-5.75025 6.15403,-8.21504 12.36927,-10.41816 10.24174,-3.63039 15.34531,-3.1934 24.8208,2.12521 5.75026,3.22767 8.21508,6.15406 10.41819,12.36931 1.58723,4.47776 2.70964,10.19948 2.49428,12.71496 -0.21538,2.51543 -2.29413,7.9631 -4.61952,12.10582 -3.22761,5.75027 -6.15405,8.21509 -12.36931,10.41821 -10.24171,3.63036 -15.3453,3.19337 -24.82079,-2.12524 z"
       id="path4439"
       inkscape:connector-curvature="0"
       inkscape:export-xdpi="36.310509"
       inkscape:export-ydpi="36.310509" />
    <path
       style="fill:#44aa00"
       d="m -263.29582,417.43118 c 9.76098,-4.13858 17.80515,-15.10462 18.69386,-25.48404 1.36179,-15.90462 -12.53275,-32.40132 -28.43734,-33.76313 -15.90463,-1.36178 -32.40131,12.53275 -33.76313,28.43736 -0.88871,10.37942 5.17413,22.55334 14.0895,28.29104 9.64953,6.21024 18.85228,6.99819 29.41711,2.51877 z"
       id="path4433"
       inkscape:connector-curvature="0"
       inkscape:export-xdpi="36.310509"
       inkscape:export-ydpi="36.310509" />
    <path
       style="fill:#44aa00"
       d="m -290.15078,412.02578 c -5.75024,-3.22763 -8.21505,-6.15406 -10.41817,-12.3693 -1.58724,-4.47776 -2.70965,-10.19949 -2.49428,-12.71495 0.21539,-2.51546 2.29416,-7.96309 4.61951,-12.10584 3.22763,-5.75026 6.15404,-8.21505 12.36929,-10.41817 10.24174,-3.63039 15.34531,-3.1934 24.82082,2.12521 5.75024,3.22765 8.21504,6.15405 10.41815,12.36931 1.58726,4.47774 2.70967,10.1995 2.49432,12.71496 -0.21541,2.51546 -2.29416,7.96308 -4.61953,12.10583 -3.22764,5.75026 -6.15404,8.21507 -12.36929,10.41819 -10.24174,3.63036 -15.3453,3.19339 -24.82082,-2.12524 z"
       id="path4431"
       inkscape:connector-curvature="0"
       inkscape:export-xdpi="36.310509"
       inkscape:export-ydpi="36.310509" />
    <path
       style="fill:#44aa00"
       d="m -346.09575,351.37082 c 9.761,-4.13859 17.80516,-15.10461 18.69385,-25.48404 1.36181,-15.90462 -12.53271,-32.40131 -28.43733,-33.76313 -10.37942,-0.88871 -22.55333,5.17415 -28.29104,14.08951 -6.21023,9.64956 -6.9982,18.85228 -2.51878,29.41711 4.13857,9.76099 15.10462,17.80516 25.48404,18.69387 3.70824,0.31749 10.48938,-1.01149 15.06926,-2.95332 z"
       id="path4429"
       inkscape:connector-curvature="0"
       inkscape:export-xdpi="36.310509"
       inkscape:export-ydpi="36.310509" />
    <path
       style="fill:#44aa00"
       d="m -372.95072,345.96541 c -5.75024,-3.22763 -8.21504,-6.15403 -10.41816,-12.36929 -1.58724,-4.47775 -2.70966,-10.1995 -2.49429,-12.71493 0.2154,-2.51547 2.29415,-7.96312 4.61951,-12.10587 3.22764,-5.75025 6.15407,-8.21506 12.36932,-10.41817 10.24172,-3.63038 15.34529,-3.19339 24.82079,2.12522 5.75024,3.22762 8.21505,6.15404 10.41818,12.3693 1.58722,4.47777 2.70967,10.19949 2.49427,12.71494 -0.21537,2.51549 -2.29416,7.96311 -4.6195,12.10587 -3.22764,5.75025 -6.15405,8.21503 -12.36929,10.41818 -4.47778,1.58725 -10.19951,2.70964 -12.71496,2.49428 -2.51547,-0.2154 -7.96308,-2.29416 -12.10587,-4.61953 z"
       id="path4427"
       inkscape:connector-curvature="0"
       inkscape:export-xdpi="36.310509"
       inkscape:export-ydpi="36.310509" />
    <path
       inkscape:export-ydpi="36.310509"
       inkscape:export-xdpi="36.310509"
       inkscape:connector-curvature="0"
       id="path4664"
       d="m -273.32082,534.51442 c 9.76099,-4.13859 17.80517,-15.1046 18.69384,-25.48405 1.36183,-15.90461 -12.53271,-32.40132 -28.43732,-33.76312 -15.90461,-1.36181 -32.40132,12.53274 -33.76311,28.43735 -0.31751,3.70823 1.01148,10.4894 2.95329,15.06925 4.13861,9.76102 15.10462,17.80515 25.48406,18.69387 3.70822,0.31752 10.48937,-1.01146 15.06924,-2.9533 z"
       style="fill:#44aa00" />
    <path
       inkscape:export-ydpi="36.310509"
       inkscape:export-xdpi="36.310509"
       inkscape:connector-curvature="0"
       id="path4666"
       d="m -300.17576,529.10902 c -5.75026,-3.22765 -8.21506,-6.15406 -10.41819,-12.36929 -1.5872,-4.47776 -2.70966,-10.19949 -2.49427,-12.71497 0.21539,-2.51545 2.29418,-7.96312 4.61949,-12.10585 3.22767,-5.75025 6.15407,-8.21505 12.36933,-10.41816 4.47775,-1.58725 10.19949,-2.70966 12.71495,-2.49428 2.51545,0.21536 7.9631,2.29415 12.10584,4.61949 5.75026,3.22765 8.21506,6.15404 10.41817,12.36929 1.58726,4.47778 2.70968,10.1995 2.49429,12.71496 -0.21539,2.51547 -2.29415,7.96312 -4.6195,12.10584 -3.22766,5.75028 -6.15406,8.21507 -12.36932,10.4182 -10.2417,3.63038 -15.3453,3.19339 -24.82079,-2.12523 z"
       style="fill:#44aa00" />
    <path
       inkscape:export-ydpi="36.310509"
       inkscape:export-xdpi="36.310509"
       inkscape:connector-curvature="0"
       id="path4668"
       d="m -263.29582,417.43118 c 9.76098,-4.13858 17.80515,-15.10462 18.69386,-25.48404 1.36179,-15.90462 -12.53275,-32.40132 -28.43734,-33.76313 -15.90463,-1.36178 -32.40131,12.53275 -33.76313,28.43736 -0.88871,10.37942 5.17413,22.55334 14.0895,28.29104 9.64953,6.21024 18.85228,6.99819 29.41711,2.51877 z"
       style="fill:#44aa00" />
    <path
       inkscape:export-ydpi="36.310509"
       inkscape:export-xdpi="36.310509"
       inkscape:connector-curvature="0"
       id="path4670"
       d="m -290.15078,412.02578 c -5.75024,-3.22763 -8.21505,-6.15406 -10.41817,-12.3693 -1.58724,-4.47776 -2.70965,-10.19949 -2.49428,-12.71495 0.21539,-2.51546 2.29416,-7.96309 4.61951,-12.10584 3.22763,-5.75026 6.15404,-8.21505 12.36929,-10.41817 10.24174,-3.63039 15.34531,-3.1934 24.82082,2.12521 5.75024,3.22765 8.21504,6.15405 10.41815,12.36931 1.58726,4.47774 2.70967,10.1995 2.49432,12.71496 -0.21541,2.51546 -2.29416,7.96308 -4.61953,12.10583 -3.22764,5.75026 -6.15404,8.21507 -12.36929,10.41819 -10.24174,3.63036 -15.3453,3.19339 -24.82082,-2.12524 z"
       style="fill:#44aa00" />
  </g>
</svg>
