<?xml version="1.0" encoding="UTF-8" standalone="no"?>
<!-- Created with Inkscape (http://www.inkscape.org/) -->

<svg
   xmlns:dc="http://purl.org/dc/elements/1.1/"
   xmlns:cc="http://creativecommons.org/ns#"
   xmlns:rdf="http://www.w3.org/1999/02/22-rdf-syntax-ns#"
   xmlns:svg="http://www.w3.org/2000/svg"
   xmlns="http://www.w3.org/2000/svg"
   xmlns:sodipodi="http://sodipodi.sourceforge.net/DTD/sodipodi-0.dtd"
   xmlns:inkscape="http://www.inkscape.org/namespaces/inkscape"
   width="200mm"
   height="200mm"
   viewBox="0 0 708.66142 708.66141"
   id="svg2"
   version="1.1"
   inkscape:version="0.91 r13725"
   sodipodi:docname="icon.svg"
   inkscape:export-filename="/Users/gg/Dev/github/dont-dupe-tabs/icon.png"
   inkscape:export-xdpi="16.26"
   inkscape:export-ydpi="16.26">
  <defs
     id="defs4" />
  <sodipodi:namedview
     id="base"
     pagecolor="#ffffff"
     bordercolor="#666666"
     borderopacity="1.0"
     inkscape:pageopacity="0.0"
     inkscape:pageshadow="2"
     inkscape:zoom="0.49497475"
     inkscape:cx="355.34314"
     inkscape:cy="630.237"
     inkscape:document-units="px"
     inkscape:current-layer="layer1"
     showgrid="false"
     inkscape:window-width="1920"
     inkscape:window-height="1110"
     inkscape:window-x="30"
     inkscape:window-y="0"
     inkscape:window-maximized="0" />
  <metadata
     id="metadata7">
    <rdf:RDF>
      <cc:Work
         rdf:about="">
        <dc:format>image/svg+xml</dc:format>
        <dc:type
           rdf:resource="http://purl.org/dc/dcmitype/StillImage" />
        <dc:title />
      </cc:Work>
    </rdf:RDF>
  </metadata>
  <g
     inkscape:label="Layer 1"
     inkscape:groupmode="layer"
     id="layer1"
     transform="translate(0,-343.70079)">
    <path
       inkscape:connector-curvature="0"
       style="fill:#4d4d4d"
       d="m 1095.6107,554.44418 c -3.878,-0.0105 -8.3462,0.015 -13.4977,0.015 l -31.2981,0 -3.7414,3.9652 c -3.3768,3.57228 -3.7486,5.99642 -3.7486,24.6371 l 0,20.67778 -20.3313,0.2379 c -16.8797,0.19893 -20.8847,0.69735 -23.59967,2.93719 -1.7985,1.48381 -9.31908,16.51218 -16.71319,33.39578 l -13.44472,30.69652 -0.004,208.7574 c -0.002,144.83895 0.58786,209.67335 1.92369,211.75035 1.05896,1.6465 3.70202,3.5897 5.87347,4.3177 4.25079,1.4252 203.87052,2.0279 210.10672,0.6344 2.064,-0.4612 5.1136,-2.7557 6.7771,-5.0989 2.7884,-3.9279 3.025,-20.4379 3.025,-211.50075 l 0,-207.23889 -13.7659,-31.63934 c -7.5714,-17.40142 -15.0939,-32.78384 -16.7168,-34.18295 -2.3632,-2.03749 -7.0877,-2.63617 -23.7338,-3.00767 l -20.7831,-0.46407 -0.4624,-21.80566 c -0.5349,-25.16508 1.2808,-27.01424 -25.8657,-27.08378 z m -26.9848,21.06842 14.5249,0 14.5283,0 -0.5224,13.91051 -0.5189,13.9105 -12.7846,0.39064 c -7.0319,0.21398 -13.3347,-0.0671 -14.006,-0.62561 -0.6713,-0.55861 -1.2213,-6.995 -1.2213,-14.30116 l 0,-13.28488 z m -52.0211,48.12283 65.7059,0 c 62.5097,0 65.7935,0.1388 67.5272,2.83437 2.7036,4.20378 14.5699,32.20671 14.5707,34.38562 3e-4,1.4763 -17.6503,1.8798 -82.2286,1.8798 -45.2255,0 -82.22827,-0.28208 -82.22827,-0.62856 0,-0.34648 3.74747,-9.14394 8.32657,-19.5499 l 8.3265,-18.92133 z m -22.07477,58.62325 88.10187,0.39065 88.1019,0.3877 0.4588,196.62685 0.4589,196.62692 -88.5608,0 -88.56067,0 0,-197.01462 0,-197.0175 z"
       id="path4252" />
    <rect
       style="fill:#4d4d4d;fill-opacity:1;stroke:none;stroke-width:0.125;stroke-linecap:butt;stroke-linejoin:miter;stroke-miterlimit:1;stroke-dasharray:none;stroke-opacity:1"
       id="rect4336"
       width="41.988022"
       height="312.93585"
       x="1020.5"
       y="730.34784" />
    <path
       id="path4340"
       d="m 601.1357,502.44563 c -3.86285,-0.28579 -8.31726,-0.5775 -13.44999,-0.94321 l -31.18396,-2.22182 -4.13439,3.68513 c -3.73073,3.31954 -4.34965,5.70845 -6.26071,24.28117 l -2.11992,20.60239 -20.28148,-1.20626 c -16.83855,-1.00007 -20.88012,-0.78779 -23.81482,1.25115 -1.94413,1.35073 -10.97797,15.79043 -20.07607,32.08758 l -16.54274,29.63017 -21.40561,207.9961 c -14.85083,144.31082 -20.91021,208.95067 -19.79217,211.11507 0.88631,1.7157 3.32051,3.8393 5.40939,4.7188 4.0892,1.7218 202.91951,16.4933 209.2758,15.5476 2.10366,-0.3134 5.37752,-2.3827 7.27511,-4.5993 3.18086,-3.7156 5.10925,-20.1487 24.69718,-210.51502 L 689.97765,627.3918 679.50561,594.89056 c -5.7598,-17.87548 -11.67791,-33.73584 -13.15137,-35.24505 -2.14571,-2.19782 -6.79163,-3.12971 -23.33897,-4.68156 l -20.65966,-1.93776 1.77482,-21.75898 c 2.04701,-25.1113 4.0456,-26.82483 -22.99485,-28.82124 z m -29.04632,19.076 14.47186,1.0311 14.47539,1.03136 -1.94661,13.8227 -1.9431,13.82297 -12.7781,-0.51838 c -7.02826,-0.28598 -13.27916,-1.01328 -13.89075,-1.61759 -0.61158,-0.60422 -0.49969,-7.0562 0.24934,-14.33573 l 1.36197,-13.23643 z m -56.76502,44.25444 65.46627,4.66441 c 62.28173,4.43753 65.53942,4.80894 66.99038,7.61775 2.26281,4.3804 11.21509,33.12362 10.99233,35.29464 -0.15091,1.47095 -17.77859,0.61996 -82.12137,-3.9644 -45.06076,-3.21055 -81.89975,-6.1184 -81.86422,-6.46362 0.0355,-0.34522 4.67127,-8.84457 10.30053,-18.88752 l 10.23608,-18.26126 z m -28.00451,56.84244 87.74066,6.64354 87.74096,6.64059 -19.70119,195.94261 -19.70115,195.94265 -88.23792,-6.2869 -88.23791,-6.2869 20.19813,-196.29633 20.19842,-196.29926 z"
       style="fill:#4d4d4d"
       inkscape:connector-curvature="0" />
    <rect
       y="634.86725"
       x="574.70044"
       height="313.44125"
       width="41.941006"
       id="rect4348"
       style="fill:#4d4d4d;fill-opacity:1;stroke:none;stroke-width:0.125;stroke-linecap:butt;stroke-linejoin:miter;stroke-miterlimit:1;stroke-dasharray:none;stroke-opacity:1"
       transform="matrix(0.9974714,0.07106899,-0.10235563,0.99474787,0,0)" />
    <path
       style="fill:#4d4d4d"
       d="m 1054.9395,445.36125 c -6.6731,3.38555 -10.8721,11.49456 -21.6198,34.43322 -7.7802,16.60504 -22.7553,48.52113 -33.2779,70.92351 -10.52263,22.40236 -19.69759,42.74507 -20.38755,45.20744 -2.19929,7.84882 2.0679,10.38896 35.68805,21.24263 17.3549,5.60271 46.6638,15.12816 65.134,21.16983 83.5871,27.34154 103.2566,33.33712 105.1302,32.04046 1.0969,-0.75926 2.0302,-0.74159 2.072,0.0371 0.042,0.77875 1.152,1.21774 2.4672,0.97884 1.3154,-0.2389 2.999,-0.71314 3.7408,-1.05474 1.9935,-0.918 10.9218,-18.07119 13.0154,-25.00508 19.0998,-35.50362 29.3094,-61.88841 42.8676,-90.70218 0,0 15.7908,-24.63431 15.7141,-37.78066 -1.3733,-9.40847 -12.0258,-17.67052 -39.9537,-30.99007 -48.2852,-23.02849 -132.9933,-45.99607 -159.1092,-43.13959 -4.9032,0.53632 -8.4478,1.10037 -11.4812,2.63926 z m 13.7909,17.66079 c 2.3018,-1.30509 35.4545,4.42375 55.8118,9.64415 25.5398,6.54945 64.1768,19.84783 84.2251,28.98717 15.723,7.16754 31.6955,16.24745 31.1887,17.73015 -0.3745,1.09605 -40.9946,87.53355 -51.8693,110.37485 -4.6908,9.85261 -8.8134,18.03794 -9.1618,18.18891 -0.3483,0.15095 -20.8554,-6.39397 -45.571,-14.5443 -24.7156,-8.15029 -63.1637,-20.6795 -85.4387,-27.84045 -28.3173,-9.10334 -40.2599,-13.64576 -39.7029,-15.10287 2.9594,-7.74138 59.537,-126.88128 60.5181,-127.43761 z"
       id="path4244"
       inkscape:connector-curvature="0"
       sodipodi:nodetypes="sssssssccccccsssssssssssss"
       inkscape:export-xdpi="31.00577"
       inkscape:export-ydpi="31.00577" />
    <path
       style="fill:#ff2a2a;fill-opacity:0.50196078;stroke:none;stroke-width:0.125;stroke-linecap:butt;stroke-linejoin:miter;stroke-miterlimit:1;stroke-dasharray:none;stroke-opacity:1"
       d="m 1167.5319,644.21511 c -6.1332,-1.94576 -28.8167,-9.31427 -50.4081,-16.37452 -21.5911,-7.06024 -47.6354,-15.54382 -57.8761,-18.85244 -36.743,-11.87116 -51.3615,-17.23652 -50.718,-18.615 0.1384,-0.29664 1.8739,-4.11451 3.8567,-8.48416 8.5228,-18.7834 52.6288,-111.52363 55.5509,-116.80542 l 1.1468,-2.07293 3.9923,0.24151 c 10.7321,0.64926 43.2859,7.26197 62.1742,12.62955 13.5409,3.84801 42.5691,13.59563 56.5114,18.97636 16.9383,6.53698 42.0633,19.01077 46.3713,23.02171 l 1.5712,1.46304 -10.6068,22.66234 c -26.8788,57.42876 -48.085,102.06249 -49.7209,104.65042 -0.6334,1.00212 -1.6601,0.79059 -11.8449,-2.44046 z"
       id="path4320"
       inkscape:connector-curvature="0" />
    <path
       style="fill:#4d4d4d"
       d="m 41.675497,347.9087 c -1.96491,-0.001 -4.22204,5e-4 -6.8238,5e-4 -20.23558,0 -19.29785,-0.0627 -22.45636,1.50348 -2.66195,1.32 -5.15807,4.21965 -6.18019,7.17878 l -0.60895,1.76256 0,71.15532 0,71.15532 0.60895,1.76309 c 1.55103,4.49041 5.85416,7.98823 10.61924,8.63176 0.43083,0.0582 32.45075,0.0934 71.15532,0.078 l 70.371993,-0.0281 1.45911,-0.55846 c 0.80241,-0.30736 1.85993,-0.76276 2.35008,-1.01185 2.46095,-1.25067 4.96423,-4.14972 6.02209,-6.97426 l 0.61352,-1.63914 0.0687,-62.8214 0.0684,-62.8219 -16.8887,-0.1734 c -9.28865,-0.0955 -32.83945,-0.17393 -52.335263,-0.17393 l -35.44711,0 -0.10762,-8.16002 c -0.1176,-8.8956 -0.21993,-9.60603 -1.77226,-12.33794 -1.1725,-2.06347 -2.50807,-3.44595 -4.38753,-4.54256 -3.13701,-1.83038 -2.57534,-1.9778 -16.32972,-1.98594 z m -21.57711,39.03802 67.10795,0 67.107993,0 0,54.83528 0,54.83531 -67.107993,0 -67.10795,0 0,-54.83531 0,-54.83528 z"
       id="path4587"
       inkscape:connector-curvature="0"
       inkscape:export-xdpi="36.310509"
       inkscape:export-ydpi="36.310509" />
    <path
       inkscape:connector-curvature="0"
       id="path4590"
       d="m 230.38178,373.06953 c -1.96492,-10e-4 -4.22206,5.1e-4 -6.82382,5.1e-4 -20.23557,0 -19.29784,-0.0627 -22.45637,1.50348 -2.66194,1.31997 -5.15807,4.21963 -6.18018,7.17876 l -0.60894,1.76257 0,71.15533 0,71.15532 0.60894,1.76308 c 1.55102,4.49041 5.85415,7.98824 10.61923,8.63177 0.43085,0.0582 32.45075,0.0934 71.15533,0.078 l 70.37196,-0.0281 1.45911,-0.55846 c 0.80242,-0.30735 1.85996,-0.76276 2.35009,-1.01184 2.46097,-1.25066 4.96422,-4.14974 6.0221,-6.97426 l 0.61352,-1.63914 0.0687,-62.8214 0.0684,-62.82193 -16.88867,-0.17338 c -9.28865,-0.0955 -32.83945,-0.17391 -52.33526,-0.17391 l -35.44711,0 -0.10761,-8.16002 c -0.11761,-8.89561 -0.21994,-9.60605 -1.77225,-12.33796 -1.17252,-2.06346 -2.50808,-3.44593 -4.38754,-4.54257 -3.13703,-1.83036 -2.57533,-1.97778 -16.32971,-1.98593 z m -21.57714,39.03801 67.10797,0 67.10795,0 0,54.8353 0,54.83529 -67.10795,0 -67.10797,0 0,-54.83529 0,-54.8353 z"
       style="fill:#4d4d4d"
       inkscape:export-xdpi="36.310509"
       inkscape:export-ydpi="36.310509" />
    <path
       style="fill:#4d4d4d"
       d="m 132.88353,530.32474 c -1.96491,-10e-4 -4.22204,5e-4 -6.8238,5e-4 -20.23558,0 -19.29785,-0.0627 -22.45636,1.50348 -2.66194,1.31998 -5.158083,4.21964 -6.180193,7.17877 l -0.60895,1.76255 0,71.15535 0,71.15532 0.60895,1.76309 c 1.55102,4.4904 5.854163,7.9882 10.619233,8.63176 0.43085,0.0582 32.45075,0.0934 71.15533,0.078 l 70.37197,-0.0281 1.45912,-0.55845 c 0.80239,-0.30735 1.85994,-0.76276 2.35007,-1.01184 2.46096,-1.25066 4.96424,-4.14974 6.02209,-6.97426 l 0.61353,-1.63914 0.0687,-62.8214 0.0684,-62.82193 -16.88869,-0.17338 c -9.28865,-0.0955 -32.83945,-0.17393 -52.33527,-0.17393 l -35.44709,0 -0.10761,-8.16001 c -0.11761,-8.8956 -0.21992,-9.60604 -1.77226,-12.33795 -1.17252,-2.06346 -2.50807,-3.44593 -4.38754,-4.54257 -3.13701,-1.83038 -2.57532,-1.97778 -16.32971,-1.98593 z m -21.57712,39.03801 67.10796,0 67.10798,0 0,54.8353 0,54.83529 -67.10798,0 -67.10796,0 0,-54.83529 0,-54.8353 z"
       id="path4592"
       inkscape:connector-curvature="0"
       inkscape:export-xdpi="36.310509"
       inkscape:export-ydpi="36.310509" />
    <path
       style="fill:#44aa00;fill-opacity:0.50196078"
       d="m 326.5457,736.43859 c 12.11133,-7.16047 20.76358,-22.9995 20.10701,-36.80849 -1.00604,-21.15977 -22.18374,-40.41508 -43.3435,-39.40904 -13.80897,0.65653 -28.7557,10.77247 -34.73479,23.50854 -6.47154,13.78489 -5.88943,26.02835 1.86074,39.137 7.16049,12.11137 22.99956,20.76358 36.80849,20.10704 4.93353,-0.23457 13.61943,-3.17532 19.30205,-6.53505 z"
       id="path4461"
       inkscape:connector-curvature="0"
       inkscape:export-xdpi="36.310509"
       inkscape:export-ydpi="36.310509" />
    <path
       style="fill:#44aa00;fill-opacity:0.50196078"
       d="m 290.27115,734.0518 c -8.13133,-3.23417 -11.8881,-6.64995 -15.87912,-14.43772 -2.87532,-5.61067 -5.35807,-12.93938 -5.5172,-16.28601 -0.15908,-3.34661 1.6171,-10.87782 3.94715,-16.73601 3.23416,-8.13134 6.64993,-11.8881 14.43773,-15.87912 5.61067,-2.87533 12.93941,-5.35807 16.28601,-5.51717 3.34662,-0.15914 10.87782,1.61708 16.736,3.94712 8.13131,3.23417 11.88811,6.64991 15.87913,14.43771 2.87533,5.61069 5.35807,12.93941 5.51717,16.28604 0.15911,3.34659 -1.61709,10.87782 -3.94716,16.73599 -3.23412,8.13131 -6.64988,11.88812 -14.43768,15.87914 -12.83305,6.57654 -19.62292,6.89936 -33.02203,1.57003 z"
       id="path4459"
       inkscape:connector-curvature="0"
       inkscape:export-xdpi="36.310509"
       inkscape:export-ydpi="36.310509" />
    <path
       style="fill:#44aa00;fill-opacity:0.50196078"
       d="m 439.66983,652.99929 c 12.1113,-7.16049 20.76359,-22.99952 20.10697,-36.80851 -1.00599,-21.15977 -22.18371,-40.41508 -43.34349,-39.40905 -21.15977,1.00603 -40.41507,22.18376 -39.40903,43.34353 0.23457,4.9335 3.17533,13.61941 6.53501,19.30203 7.16051,12.11134 22.99953,20.76356 36.80852,20.10701 4.93348,-0.23454 13.61938,-3.17529 19.30202,-6.53501 z"
       id="path4449"
       inkscape:connector-curvature="0"
       inkscape:export-xdpi="36.310509"
       inkscape:export-ydpi="36.310509" />
    <path
       style="fill:#44aa00;fill-opacity:0.50196078"
       d="m 403.39527,650.61249 c -8.13132,-3.23417 -11.88811,-6.64994 -15.87914,-14.43771 -2.87529,-5.6107 -5.35806,-12.93941 -5.51716,-16.28604 -0.1591,-3.34661 1.61711,-10.87786 3.94711,-16.736 3.23419,-8.13132 6.64995,-11.8881 14.43776,-15.87912 5.61068,-2.87535 12.93941,-5.35806 16.28601,-5.51716 3.3466,-0.15915 10.87782,1.61708 16.73599,3.94711 8.13133,3.23417 11.88811,6.6499 15.87913,14.4377 2.87535,5.61071 5.35808,12.93941 5.51718,16.28603 0.1591,3.34662 -1.61709,10.87784 -3.94713,16.73598 -3.23418,8.13136 -6.64993,11.88814 -14.43774,15.87917 -12.83299,6.57656 -19.62291,6.89938 -33.02201,1.57004 z"
       id="path4447"
       inkscape:connector-curvature="0"
       inkscape:export-xdpi="36.310509"
       inkscape:export-ydpi="36.310509" />
    <path
       style="fill:#44aa00;fill-opacity:0.50196078"
       d="m 319.13965,580.66908 c 12.11132,-7.1605 20.76354,-22.99957 20.107,-36.80851 -1.00604,-21.15979 -22.18375,-40.41508 -43.34352,-39.40906 -21.15979,1.00604 -40.41507,22.18378 -39.40904,43.34353 0.65655,13.80898 10.77248,28.75567 23.50856,34.73479 13.78483,6.47153 26.02832,5.88939 39.137,-1.86075 z"
       id="path4445"
       inkscape:connector-curvature="0"
       inkscape:export-xdpi="36.310509"
       inkscape:export-ydpi="36.310509" />
    <path
       style="fill:#44aa00;fill-opacity:0.50196078"
       d="m 282.86508,578.28225 c -8.13133,-3.23414 -11.88811,-6.64991 -15.87914,-14.4377 -6.57656,-12.83301 -6.89936,-19.62295 -1.57004,-33.02202 3.23419,-8.1313 6.64994,-11.88812 14.43774,-15.87913 12.83301,-6.57657 19.62292,-6.8994 33.02199,-1.57003 8.13134,3.23413 11.88814,6.64988 15.87915,14.43768 2.87533,5.61071 5.35808,12.93943 5.51715,16.28606 0.15915,3.34662 -1.61709,10.87782 -3.94713,16.73601 -3.23412,8.1313 -6.64989,11.88808 -14.43769,15.8791 -12.83304,6.57656 -19.62294,6.89939 -33.02203,1.57003 z"
       id="path4443"
       inkscape:connector-curvature="0"
       inkscape:export-xdpi="36.310509"
       inkscape:export-ydpi="36.310509" />
    <path
       style="fill:#44aa00;fill-opacity:0.50196078"
       d="m 552.79392,569.55996 c 12.11135,-7.16049 20.76361,-22.99954 20.10704,-36.80853 -1.00601,-21.15977 -22.18373,-40.41507 -43.34353,-39.40901 -21.15977,1.00603 -40.41506,22.18374 -39.40903,43.34351 0.65652,13.80898 10.7725,28.75571 23.50856,34.73479 13.78483,6.47151 26.02831,5.8894 39.13696,-1.86076 z"
       id="path4441"
       inkscape:connector-curvature="0"
       inkscape:export-xdpi="36.310509"
       inkscape:export-ydpi="36.310509" />
    <path
       style="fill:#44aa00;fill-opacity:0.50196078"
       d="m 516.51938,567.17315 c -8.13131,-3.23417 -11.88808,-6.64991 -15.87912,-14.43773 -2.87533,-5.61066 -5.35806,-12.93939 -5.51716,-16.28599 -0.15914,-3.34662 1.61708,-10.87785 3.94715,-16.73603 3.23413,-8.1313 6.6499,-11.88809 14.43768,-15.87911 12.83305,-6.57657 19.62292,-6.89939 33.02202,-1.57005 8.13133,3.23419 11.88814,6.64992 15.87916,14.43772 2.87531,5.6107 5.35801,12.9394 5.51716,16.28603 0.15911,3.34658 -1.61705,10.87782 -3.94715,16.73596 -3.23412,8.13134 -6.64993,11.88817 -14.43773,15.87919 -12.833,6.57653 -19.62292,6.89935 -33.02201,1.57001 z"
       id="path4439"
       inkscape:connector-curvature="0"
       inkscape:export-xdpi="36.310509"
       inkscape:export-ydpi="36.310509" />
    <path
       style="fill:#44aa00;fill-opacity:0.50196078"
       d="m 432.26377,497.22973 c 12.11129,-7.16046 20.76356,-22.99953 20.10701,-36.80849 -1.00606,-21.15978 -22.18378,-40.41508 -43.34353,-39.40906 -21.15978,1.00606 -40.41506,22.18377 -39.40905,43.34354 0.65655,13.80896 10.7725,28.75569 23.50854,34.73479 13.78484,6.47154 26.02834,5.8894 39.13703,-1.86078 z"
       id="path4433"
       inkscape:connector-curvature="0"
       inkscape:export-xdpi="36.310509"
       inkscape:export-ydpi="36.310509" />
    <path
       style="fill:#44aa00;fill-opacity:0.50196078"
       d="m 395.98919,494.84293 c -8.1313,-3.23414 -11.8881,-6.64994 -15.87912,-14.43771 -2.87534,-5.6107 -5.35804,-12.93941 -5.51717,-16.28602 -0.15911,-3.34661 1.61709,-10.87781 3.94713,-16.73599 3.23415,-8.13132 6.64991,-11.8881 14.43771,-15.87913 12.83305,-6.57657 19.62292,-6.89938 33.02204,-1.57005 8.1313,3.23416 11.88809,6.64992 15.8791,14.43773 2.87536,5.61066 5.35807,12.93942 5.51722,16.28602 0.15908,3.34662 -1.61709,10.8778 -3.94716,16.73598 -3.23416,8.13132 -6.64991,11.88813 -14.4377,15.87916 -12.83305,6.57653 -19.62292,6.89936 -33.02205,1.57001 z"
       id="path4431"
       inkscape:connector-curvature="0"
       inkscape:export-xdpi="36.310509"
       inkscape:export-ydpi="36.310509" />
    <path
       style="fill:#44aa00;fill-opacity:0.50196078"
       d="m 311.73358,424.89952 c 12.11132,-7.16049 20.76357,-22.99953 20.10698,-36.8085 -1.00602,-21.15978 -22.18371,-40.41508 -43.34349,-39.40906 -13.80896,0.65655 -28.75569,10.77252 -34.7348,23.50856 -6.47151,13.78487 -5.88941,26.02833 1.86077,39.13703 7.16046,12.1113 22.99954,20.76356 36.80849,20.10701 4.93351,-0.23459 13.6194,-3.17534 19.30205,-6.53504 z"
       id="path4429"
       inkscape:connector-curvature="0"
       inkscape:export-xdpi="36.310509"
       inkscape:export-ydpi="36.310509" />
    <path
       style="fill:#44aa00;fill-opacity:0.50196078"
       d="m 275.45899,422.5127 c -8.1313,-3.23414 -11.88809,-6.64989 -15.87912,-14.4377 -2.87533,-5.61068 -5.35806,-12.93942 -5.51718,-16.28599 -0.15909,-3.34663 1.61708,-10.87785 3.94714,-16.73603 3.23416,-8.13131 6.64995,-11.88812 14.43775,-15.87913 12.83301,-6.57655 19.62289,-6.89937 33.02199,-1.57004 8.1313,3.23413 11.8881,6.64991 15.87915,14.43772 2.87531,5.61071 5.35806,12.9394 5.51714,16.286 0.15914,3.34665 -1.61708,10.87783 -3.94712,16.73603 -3.23415,8.13131 -6.64992,11.88807 -14.43769,15.87914 -5.61073,2.87535 -12.93944,5.35802 -16.28603,5.51717 -3.34663,0.15909 -10.8778,-1.61711 -16.73603,-3.94717 z"
       id="path4427"
       inkscape:connector-curvature="0"
       inkscape:export-xdpi="36.310509"
       inkscape:export-ydpi="36.310509" />
    <path
       inkscape:export-ydpi="36.310509"
       inkscape:export-xdpi="36.310509"
       inkscape:connector-curvature="0"
       id="path4664"
       d="m 439.66983,652.99929 c 12.1113,-7.16049 20.76359,-22.99952 20.10697,-36.80851 -1.00599,-21.15977 -22.18371,-40.41508 -43.34349,-39.40905 -21.15977,1.00603 -40.41507,22.18376 -39.40903,43.34353 0.23457,4.9335 3.17533,13.61941 6.53501,19.30203 7.16051,12.11134 22.99953,20.76356 36.80852,20.10701 4.93348,-0.23454 13.61938,-3.17529 19.30202,-6.53501 z"
       style="fill:#44aa00;fill-opacity:0.50196078" />
    <path
       inkscape:export-ydpi="36.310509"
       inkscape:export-xdpi="36.310509"
       inkscape:connector-curvature="0"
       id="path4666"
       d="m 403.39527,650.61249 c -8.13132,-3.23417 -11.88811,-6.64994 -15.87914,-14.43771 -2.87529,-5.6107 -5.35806,-12.93941 -5.51716,-16.28604 -0.1591,-3.34661 1.61711,-10.87786 3.94711,-16.736 3.23419,-8.13132 6.64995,-11.8881 14.43776,-15.87912 5.61068,-2.87535 12.93941,-5.35806 16.28601,-5.51716 3.3466,-0.15915 10.87782,1.61708 16.73599,3.94711 8.13133,3.23417 11.88811,6.6499 15.87913,14.4377 2.87535,5.61071 5.35808,12.93941 5.51718,16.28603 0.1591,3.34662 -1.61709,10.87784 -3.94713,16.73598 -3.23418,8.13136 -6.64993,11.88814 -14.43774,15.87917 -12.83299,6.57656 -19.62291,6.89938 -33.02201,1.57004 z"
       style="fill:#44aa00;fill-opacity:0.50196078" />
    <path
       inkscape:export-ydpi="36.310509"
       inkscape:export-xdpi="36.310509"
       inkscape:connector-curvature="0"
       id="path4668"
       d="m 432.26377,497.22973 c 12.11129,-7.16046 20.76356,-22.99953 20.10701,-36.80849 -1.00606,-21.15978 -22.18378,-40.41508 -43.34353,-39.40906 -21.15978,1.00606 -40.41506,22.18377 -39.40905,43.34354 0.65655,13.80896 10.7725,28.75569 23.50854,34.73479 13.78484,6.47154 26.02834,5.8894 39.13703,-1.86078 z"
       style="fill:#44aa00;fill-opacity:0.50196078" />
    <path
       inkscape:export-ydpi="36.310509"
       inkscape:export-xdpi="36.310509"
       inkscape:connector-curvature="0"
       id="path4670"
       d="m 395.98919,494.84293 c -8.1313,-3.23414 -11.8881,-6.64994 -15.87912,-14.43771 -2.87534,-5.6107 -5.35804,-12.93941 -5.51717,-16.28602 -0.15911,-3.34661 1.61709,-10.87781 3.94713,-16.73599 3.23415,-8.13132 6.64991,-11.8881 14.43771,-15.87913 12.83305,-6.57657 19.62292,-6.89938 33.02204,-1.57005 8.1313,3.23416 11.88809,6.64992 15.8791,14.43773 2.87536,5.61066 5.35807,12.93942 5.51722,16.28602 0.15908,3.34662 -1.61709,10.8778 -3.94716,16.73598 -3.23416,8.13132 -6.64991,11.88813 -14.4377,15.87916 -12.83305,6.57653 -19.62292,6.89936 -33.02205,1.57001 z"
       style="fill:#44aa00;fill-opacity:0.50196078" />
  </g>
</svg>
